<svg width="208" height="194" viewBox="0 0 208 194" fill="none" xmlns="http://www.w3.org/2000/svg">
<path d="M158.796 166.728C165.439 166.728 156.672 174.161 158.796 166.728C161.918 195.525 152.154 166.728 158.796 166.728C154.991 198.484 152.154 166.728 158.796 166.728C165.439 166.728 157.756 174.079 158.796 166.728ZM39.1849 179.087C40.8453 181.915 43.0597 184.298 45.748 185.953C51.1251 189.225 57.8867 189.467 65.0828 187.367C72.2789 185.266 80.2661 180.783 88.9254 174.079C90.7835 172.585 91.1788 169.474 89.7156 167.576C88.2528 165.638 85.2478 165.233 83.3497 166.728C75.323 172.988 68.1665 176.785 62.5518 178.441C56.937 180.097 53.0227 179.532 50.3344 177.916C47.6456 176.3 45.629 173.271 44.6402 167.698C43.6514 162.124 43.889 154.208 45.9848 144.393C48.7921 131.348 54.9994 116.727 62.4327 102.065C73.8598 127.389 89.557 154.773 107.508 173.433C114.783 180.864 122.019 186.6 129.018 190.154C136.016 193.668 143.015 195.162 149.38 192.981C155.746 190.8 160.017 185.146 162.27 178.199C164.524 171.252 165.077 162.69 164.247 152.956C162.626 133.407 155.667 108.811 143.528 83.1637C142.5 80.983 139.574 79.973 137.439 81.0229C135.304 82.0729 134.315 85.0617 135.344 87.2429C147.087 112.122 153.73 135.831 155.232 153.764C155.984 162.729 155.351 170.242 153.69 175.372C152.029 180.541 149.696 183.207 146.494 184.298C143.291 185.388 138.744 184.823 133.09 181.955C127.396 179.087 120.832 173.877 114.032 166.93C92.364 141.929 78.9602 118.786 68.2451 91.5239C73.6222 81.9921 79.4346 73.1473 85.84 64.3828C120.358 63.6155 157.328 69.5527 179.905 81.346C186.903 84.981 191.924 88.8582 194.969 92.4532C198.014 96.0478 199.16 99.1173 199.002 101.904C198.884 104.691 197.5 107.518 194.139 110.749C190.778 113.98 185.48 117.414 178.165 120.322C175.951 121.21 174.725 124.078 175.595 126.38C176.465 128.642 179.272 129.894 181.526 129.005C189.592 125.814 195.839 122.018 200.426 117.616C204.973 113.213 207.741 107.963 207.978 102.308C208.255 96.6943 205.922 91.1609 201.81 86.3145C197.698 81.4676 191.806 77.0654 184.096 73.0266C160.847 60.9098 126.329 55.1749 92.7598 55.1749C101.814 43.9062 111.225 33.6475 120.635 26.2969C128.543 20.1173 135.502 16.2401 141.117 14.5839C146.731 12.8874 150.685 13.372 153.374 14.907C156.063 16.4416 158.119 19.3496 159.186 24.7619C160.254 30.1337 160.017 37.7267 158.079 47.2989C157.565 49.6819 159.265 52.3073 161.598 52.7919C163.931 53.2765 166.501 51.5799 166.975 49.1973C169.071 38.8175 169.545 30.0934 168.122 22.9042C166.698 15.7151 163.14 9.89903 157.763 6.78907C152.385 3.67912 145.703 3.51758 138.546 5.65834C131.429 7.79909 123.561 12.3225 115.02 18.9462C103.237 28.1146 91.9682 40.9582 81.2532 54.9331C72.9896 55.2965 65.4769 55.983 57.6873 57.1945C56.4618 51.3381 54.6428 45.6431 54.2474 40.5948C53.4959 31.6284 54.1288 24.1162 55.7893 18.9866C57.4501 13.8167 59.7831 11.1514 62.9858 10.0606C67.9679 8.32364 77.1012 11.0702 88.212 20.4404C89.9124 22.46 93.4709 22.46 95.1314 20.4C96.8314 18.34 96.1992 14.7859 93.9453 13.4128C81.7671 2.79068 70.1423 -2.37927 60.0993 1.05419C53.7335 3.2349 49.4629 8.88944 47.2095 15.8766C44.9556 22.8239 44.4021 31.3861 45.2328 41.1198C45.6676 46.4109 47.1704 52.3481 48.4355 58.3257C31.1569 61.8395 6.1674 71.2502 0.829849 86.5173C-1.06822 92.6564 0.355439 99.2802 4.42789 105.015C8.50077 110.751 15.1434 115.92 24.0794 120.565C26.2142 121.979 29.4964 121.09 30.6034 118.748C31.7499 116.405 30.4852 113.215 28.0732 112.326C19.9678 108.085 14.5504 103.602 11.7434 99.6032C8.93607 95.6452 8.54073 92.616 9.52909 89.3445C15.895 77.9551 33.1735 70.5232 50.0572 67.6556C51.9553 74.8851 54.8018 83.1246 57.7677 90.9195C48.2782 108.488 40.7259 126.058 37.2469 142.375C34.953 152.998 34.4786 161.964 35.7837 169.315C36.4166 172.949 37.9194 176.301 39.1849 179.087ZM63.8177 79.973C62.2359 75.3688 60.615 70.8046 59.429 66.4428C64.2921 65.7159 68.8785 64.9486 74.0188 64.5852C70.4603 69.7143 67.0204 74.6015 63.7782 79.9734L63.8177 79.973Z" fill="#67595D"/>
<path d="M124.167 121.475L119.497 111.317C117.829 107.689 113.388 106.878 111.42 109.762C110.002 111.735 107.186 111.933 105.15 110.453C100.667 107.023 96.0872 97.4825 96.4773 91.5876C96.436 88.9687 98.6607 87.0645 101.08 87.269C104.548 87.6493 106.822 83.7442 105.154 80.1162L100.484 69.9579C99.0736 67.3105 96.1542 66.0177 93.9158 67.049L87.84 69.8482C81.6877 72.9025 82.742 88.6833 90.5807 105.735C98.4193 122.786 109.63 134.108 116.026 131.161L122.101 128.362C124.417 127.076 125.335 124.015 124.167 121.475Z" fill="#34DAFF"/>
<path d="M164.457 131.893L175.53 116.976L182.525 135.171L164.457 131.893Z" fill="#67595D"/>
<path d="M135.548 71.5437L149.674 83.4849L131.529 89.796L135.548 71.5437Z" fill="#67595D"/>
<path d="M94.7105 160.446L90.2492 178.591L76.8253 164.639L94.7105 160.446Z" fill="#67595D"/>
<path d="M158.688 165.859L161.481 179.717L154.378 179.307L158.688 165.859Z" fill="#67595D"/>
<path d="M38.6254 126.722L20.3044 125.634L31.253 109.592L38.6254 126.722Z" fill="#67595D"/>
<path d="M103.659 25.5649L85.3383 24.4768L96.2868 8.4345L103.659 25.5649Z" fill="#67595D"/>
<path d="M155.023 62.9224L152.535 44.3889L170.091 52.2429L155.023 62.9224Z" fill="#67595D"/>
</svg>
