<svg width="3619" height="3619" viewBox="0 0 3619 3619" fill="none" xmlns="http://www.w3.org/2000/svg">
<g clip-path="url(#clip0)">
<path d="M1933.8 1253.67C2340 1253.67 2717.4 1311.97 3001.9 1409.87C3344.7 1527.87 3555.5 1706.77 3555.5 1868.77C3555.5 2037.57 3332.1 2227.67 2964 2349.57C2685.7 2441.77 2319.4 2489.97 1933.8 2489.97C1538.4 2489.97 1164.1 2444.77 882.6 2348.57C526.5 2226.87 312 2034.37 312 1868.77C312 1708.07 513.3 1530.57 851.3 1412.77C1136.9 1313.27 1523.6 1253.67 1933.8 1253.67V1253.67Z" stroke="#67595D" stroke-width="144.746" stroke-miterlimit="10"/>
<path d="M1398.3 1563.07C1601.2 1211.17 1840.3 913.373 2067.3 715.873C2340.8 477.873 2601.1 384.673 2741.4 465.573C2887.6 549.873 2940.7 838.373 2862.4 1218.27C2803.2 1505.47 2662 1846.77 2469.3 2180.87C2271.8 2523.37 2045.6 2825.07 1821.7 3020.87C1538.4 3268.57 1264.4 3358.17 1121 3275.47C981.8 3195.17 928.6 2932.17 995.3 2580.47C1051.7 2283.07 1193.3 1918.37 1398.3 1563.07V1563.07Z" stroke="#67595D" stroke-width="144.746" stroke-miterlimit="10"/>
<path d="M1398.8 2181.57C1195.3 1829.97 1056.7 1474.17 998.9 1178.87C929.3 823.073 978.5 550.973 1118.7 469.873C1264.8 385.273 1541.2 483.373 1831.2 740.873C2050.5 935.573 2275.6 1228.37 2468.8 1562.17C2666.9 1904.37 2815.4 2250.97 2873.1 2542.67C2946.2 2911.87 2887 3193.97 2743.7 3276.87C2604.6 3357.37 2350.2 3272.17 2078.8 3038.67C1849.6 2841.37 1604.3 2536.57 1398.8 2181.57V2181.57Z" stroke="#67595D" stroke-width="144.746" stroke-miterlimit="10"/>
<g clip-path="url(#clip1)">
<path d="M2240.38 2132.04L2098.82 2012.56C2092.77 2007.47 2085.22 2004.34 2077.3 2003.64C2069.38 2002.94 2061.53 2004.71 2054.92 2008.68L1955.34 2068.35C1858.47 1980.71 1795.42 1864.64 1777.03 1740.06L1887.67 1700.78C1895.03 1698.19 1901.23 1693.35 1905.32 1687C1909.41 1680.64 1911.17 1673.12 1910.34 1665.56L1890.88 1488.61C1889.93 1480.45 1886.03 1472.76 1879.86 1466.87C1873.69 1460.99 1865.63 1457.27 1857.08 1456.37L1694.74 1439.73C1686.48 1438.88 1678.26 1440.72 1671.43 1444.95C1664.59 1449.18 1659.54 1455.55 1657.1 1463.02C1541.51 1815.78 1750.91 2200.41 2124.04 2322.68C2131.95 2325.27 2140.46 2325.26 2148.17 2322.64C2155.89 2320.03 2162.35 2314.96 2166.52 2308.27L2248.35 2176.69C2252.64 2169.7 2254.19 2161.42 2252.73 2153.27C2251.28 2145.12 2246.91 2137.61 2240.38 2132.04V2132.04Z" fill="#00D8FF"/>
</g>
</g>
<defs>
<clipPath id="clip0">
<rect width="3618.6" height="3618.6" fill="white"/>
</clipPath>
<clipPath id="clip1">
<rect width="785" height="741" fill="white" transform="translate(1678.73 1397) rotate(18.1419)"/>
</clipPath>
</defs>
</svg>
